<svg width="150" height="150" viewBox="0 0 150 150" fill="none" xmlns="http://www.w3.org/2000/svg">
  <g transform="translate(150 150) rotate(180)">

  <rect width="150" height="150" fill="#F4EFE7"/>
  <path d="M75 35C52.92 35 35 52.92 35 75C35 97.08 52.92 115 75 115C97.08 115 115 97.08 115 75C115 52.92 97.08 35 75 35ZM75 107C57.36 107 43 92.64 43 75C43 74.96 43 74.92 43 74.88C52.24 74 56.72 68.52 60.36 61.24C61.04 59.84 62.4 59 63.96 59H86.08C87.6 59 88.96 59.84 89.64 61.2C93.24 68.4 97.6 73.96 107 74.84C107 74.88 107 74.92 107 74.96C107 92.64 92.64 107 75 107Z" fill="#413D38"/>
  <path d="M63 84C65.7614 84 68 81.7614 68 79C68 76.2386 65.7614 74 63 74C60.2386 74 58 76.2386 58 79C58 81.7614 60.2386 84 63 84Z" fill="#413D38"/>
  <path d="M87 84C89.7614 84 92 81.7614 92 79C92 76.2386 89.7614 74 87 74C84.2386 74 82 76.2386 82 79C82 81.7614 84.2386 84 87 84Z" fill="#413D38"/>
  
  </g>
</svg>
