<?xml version="1.0" standalone="no"?><!DOCTYPE svg PUBLIC "-//W3C//DTD SVG 1.1//EN" "http://www.w3.org/Graphics/SVG/1.1/DTD/svg11.dtd"><svg t="1743492753492" class="icon" viewBox="0 0 1024 1024" version="1.1" xmlns="http://www.w3.org/2000/svg" p-id="1989" id="mx_n_1743492753496" xmlns:xlink="http://www.w3.org/1999/xlink" width="200" height="200"><path d="M768 1024H256C115.2 1024 0 908.8 0 768V256C0 115.2 115.2 0 256 0h512c140.8 0 256 115.2 256 256v512c0 140.8-115.2 256-256 256z" fill="#10C7C1" p-id="1990"></path><path d="M708.266667 258.133333H300.8c-17.066667 0-34.133333 14.933333-34.133333 32v441.6c0 19.2 14.933333 32 34.133333 32h407.466667c19.2 0 34.133333-14.933333 34.133333-32V290.133333c2.133333-17.066667-14.933333-32-34.133333-32zM377.6 512c-12.8 0-25.6-10.666667-25.6-23.466667s12.8-23.466667 25.6-23.466666 25.6 10.666667 25.6 23.466666c0 12.8-12.8 23.466667-25.6 23.466667z m0-115.2c-12.8 0-25.6-10.666667-25.6-23.466667s12.8-23.466667 25.6-23.466666 25.6 10.666667 25.6 23.466666c0 12.8-12.8 23.466667-25.6 23.466667z m256 115.2h-170.666667c-12.8 0-25.6-10.666667-25.6-23.466667s12.8-23.466667 25.6-23.466666h170.666667c12.8 0 25.6 10.666667 25.6 23.466666-2.133333 12.8-12.8 23.466667-25.6 23.466667z m0-115.2h-170.666667c-12.8 0-25.6-10.666667-25.6-23.466667s12.8-23.466667 25.6-23.466666h170.666667c12.8 0 25.6 10.666667 25.6 23.466666-2.133333 12.8-12.8 23.466667-25.6 23.466667z" fill="#FFFFFF" p-id="1991"></path></svg>